<svg width="446" height="76" viewBox="0 0 446 76" fill="none" xmlns="http://www.w3.org/2000/svg">
<path d="M391.91 5.63H382.3V36.75C382.3 39.58 381.7 41.67 380.51 42.98C379.918 43.6233 379.192 44.1294 378.384 44.4627C377.575 44.7961 376.704 44.9488 375.83 44.91C374.194 44.9587 372.582 44.5163 371.2 43.64C369.694 42.5981 368.361 41.3259 367.25 39.87L366.74 39.23L360.49 45.63L360.85 46.12C362.466 48.3088 364.506 50.1489 366.85 51.53C369.64 53.0925 372.804 53.8603 376 53.75C378.175 53.7855 380.34 53.4472 382.4 52.75C384.301 52.0721 386.029 50.9828 387.46 49.56C388.931 48.0591 390.06 46.258 390.77 44.28C391.584 41.9413 391.974 39.4758 391.92 37L391.91 5.63Z" fill="url(#paint0_linear)"/>
<path d="M427.48 34.16C426.782 32.6393 425.758 31.2908 424.48 30.21C423.051 29.013 421.432 28.0633 419.69 27.4C417.592 26.5941 415.445 25.926 413.26 25.4C411.12 24.88 409.34 24.4 407.96 23.92C406.854 23.5812 405.8 23.0898 404.83 22.46C404.233 22.0811 403.743 21.554 403.41 20.93C403.137 20.2995 403.003 19.6171 403.02 18.93C403.021 18.2866 403.173 17.6524 403.465 17.079C403.757 16.5056 404.18 16.0091 404.7 15.63C406.151 14.5894 407.918 14.0841 409.7 14.2C411.721 14.211 413.723 14.6011 415.6 15.35C417.733 16.2228 419.748 17.3582 421.6 18.73L422.19 19.16L427.28 11.98L426.75 11.56C424.437 9.70309 421.841 8.23089 419.06 7.20001C416.095 6.16277 412.971 5.65504 409.83 5.70001C407.644 5.69205 405.471 6.02954 403.39 6.70001C401.515 7.30104 399.776 8.26236 398.27 9.53001C396.899 10.7341 395.787 12.2037 395 13.85C394.165 15.6399 393.745 17.5951 393.77 19.57C393.717 21.518 394.082 23.4549 394.84 25.25C395.557 26.8093 396.629 28.1791 397.97 29.25C399.439 30.4321 401.095 31.3615 402.87 32C405.013 32.7676 407.2 33.4054 409.42 33.91C411.141 34.3132 412.839 34.8038 414.51 35.38C415.549 35.7247 416.537 36.2056 417.45 36.81C418.017 37.1729 418.474 37.6849 418.77 38.29C419.023 38.8981 419.149 39.5515 419.14 40.21C419.16 40.9248 418.998 41.6329 418.669 42.2678C418.34 42.9028 417.855 43.4438 417.26 43.84C415.639 44.8682 413.737 45.3646 411.82 45.26C409.291 45.3037 406.781 44.8059 404.46 43.8C402.1 42.6954 399.911 41.2573 397.96 39.53L397.41 39.06L391.69 45.85L392.21 46.32C394.865 48.7511 397.956 50.658 401.32 51.94C404.617 53.1575 408.105 53.7772 411.62 53.77C413.904 53.7902 416.178 53.4735 418.37 52.83C420.322 52.2631 422.141 51.3111 423.72 50.03C425.209 48.8009 426.408 47.2573 427.23 45.51C428.091 43.6004 428.521 41.5246 428.49 39.43C428.53 37.6216 428.186 35.8253 427.48 34.16Z" fill="url(#paint1_linear)"/>
<path d="M28.4601 28.38C30.3117 27.5217 31.9124 26.2031 33.1094 24.5501C34.3064 22.8971 35.0597 20.9649 35.2975 18.9379C35.5352 16.9109 35.2493 14.8568 34.4672 12.9717C33.6851 11.0866 32.4329 9.43341 30.8301 8.17002C30.4707 7.88742 30.0968 7.62373 29.7101 7.38002C27.8244 6.21097 25.6487 5.59428 23.4301 5.60002H9.43005V53.92H24.3301C27.4408 53.9186 30.4495 52.8103 32.8178 50.7935C35.186 48.7766 36.7593 45.9828 37.2561 42.912C37.7529 39.8412 37.1407 36.6939 35.5291 34.0332C33.9175 31.3725 31.4117 29.3721 28.4601 28.39V28.38ZM23.4601 7.53002C24.6687 7.53108 25.8675 7.74781 27.0001 8.17002C29.0665 8.93138 30.8238 10.3536 31.9993 12.2159C33.1747 14.0782 33.7025 16.2765 33.5008 18.4695C33.299 20.6625 32.379 22.7275 30.8835 24.3441C29.388 25.9607 27.4007 27.0384 25.2301 27.41C24.982 27.4548 24.7577 27.5856 24.5968 27.7795C24.4358 27.9735 24.3484 28.218 24.3501 28.47C24.3496 28.7411 24.453 29.002 24.639 29.1991C24.825 29.3963 25.0795 29.5147 25.3501 29.53C27.8937 29.747 30.2894 30.8175 32.148 32.5676C34.0067 34.3177 35.2192 36.6447 35.5886 39.1708C35.9581 41.6968 35.4629 44.2736 34.1833 46.4827C32.9038 48.6918 30.915 50.4036 28.5401 51.34C27.2171 51.8683 25.8046 52.1366 24.3801 52.13H11.2301V7.53002H23.4601Z" fill="url(#paint2_linear)"/>
<path d="M77.93 53C77.93 53.236 77.8363 53.4624 77.6694 53.6293C77.5025 53.7962 77.2761 53.89 77.04 53.89H49.91V6.48998C49.91 6.25393 50.0038 6.02756 50.1707 5.86065C50.3376 5.69374 50.564 5.59998 50.8 5.59998C51.0361 5.59998 51.2625 5.69374 51.4294 5.86065C51.5963 6.02756 51.69 6.25393 51.69 6.48998V52.13H77C77.1186 52.1246 77.237 52.143 77.3483 52.1841C77.4596 52.2252 77.5616 52.2881 77.6483 52.3691C77.7349 52.4502 77.8045 52.5478 77.8529 52.6561C77.9012 52.7644 77.9275 52.8814 77.93 53Z" fill="url(#paint3_linear)"/>
<path d="M117.5 5.53003C117.739 5.53003 117.968 5.62485 118.136 5.79363C118.305 5.96242 118.4 6.19133 118.4 6.43003C118.4 6.43003 118.4 40.32 118.4 40.55C118.187 44.1119 116.622 47.458 114.024 49.9046C111.427 52.3512 107.993 53.7137 104.425 53.7137C100.857 53.7137 97.4231 52.3512 94.8257 49.9046C92.2283 47.458 90.6631 44.1119 90.45 40.55C90.45 40.32 90.45 6.43003 90.45 6.43003C90.45 6.31184 90.4732 6.19481 90.5185 6.08561C90.5637 5.97642 90.63 5.87721 90.7136 5.79363C90.7971 5.71006 90.8963 5.64377 91.0055 5.59854C91.1147 5.55331 91.2318 5.53003 91.35 5.53003C91.4681 5.53003 91.5852 5.55331 91.6944 5.59854C91.8036 5.64377 91.9028 5.71006 91.9864 5.79363C92.0699 5.87721 92.1362 5.97642 92.1814 6.08561C92.2267 6.19481 92.25 6.31184 92.25 6.43003C92.25 6.43003 92.25 40.27 92.25 40.48C92.4192 43.5929 93.7727 46.5232 96.033 48.6703C98.2934 50.8173 101.289 52.0183 104.407 52.0273C107.524 52.0362 110.527 50.8524 112.8 48.7184C115.073 46.5844 116.443 43.6619 116.63 40.55C116.63 40.32 116.63 6.43003 116.63 6.43003C116.63 6.31184 116.653 6.19481 116.698 6.08561C116.744 5.97642 116.81 5.87721 116.894 5.79363C116.977 5.71006 117.076 5.64377 117.186 5.59854C117.295 5.55331 117.412 5.53003 117.53 5.53003H117.5Z" fill="url(#paint4_linear)"/>
<path d="M350.49 5.53003C350.729 5.53003 350.958 5.62485 351.126 5.79363C351.295 5.96242 351.39 6.19133 351.39 6.43003C351.39 6.43003 351.39 40.32 351.39 40.55C351.177 44.1119 349.612 47.458 347.014 49.9046C344.417 52.3512 340.983 53.7137 337.415 53.7137C333.847 53.7137 330.413 52.3512 327.816 49.9046C325.218 47.458 323.653 44.1119 323.44 40.55C323.44 40.32 323.44 6.43003 323.44 6.43003C323.44 6.31184 323.463 6.19481 323.509 6.08561C323.554 5.97642 323.62 5.87721 323.704 5.79363C323.787 5.71006 323.886 5.64377 323.996 5.59854C324.105 5.55331 324.222 5.53003 324.34 5.53003C324.579 5.53003 324.808 5.62485 324.976 5.79363C325.145 5.96242 325.24 6.19133 325.24 6.43003C325.24 6.43003 325.24 40.27 325.24 40.48C325.409 43.5929 326.763 46.5232 329.023 48.6703C331.283 50.8173 334.279 52.0183 337.397 52.0273C340.514 52.0362 343.517 50.8524 345.79 48.7184C348.063 46.5844 349.433 43.6619 349.62 40.55C349.62 40.32 349.62 6.43003 349.62 6.43003C349.62 6.31184 349.643 6.19481 349.689 6.08561C349.734 5.97642 349.8 5.87721 349.884 5.79363C349.967 5.71006 350.066 5.64377 350.176 5.59854C350.285 5.55331 350.402 5.53003 350.52 5.53003H350.49Z" fill="url(#paint5_linear)"/>
<path d="M214.94 53.05C214.937 53.279 214.845 53.4977 214.682 53.6587C214.519 53.8197 214.299 53.91 214.07 53.91H186.86V5.59998H214C214.229 5.60261 214.448 5.69543 214.609 5.8583C214.77 6.02117 214.86 6.24096 214.86 6.46998C214.86 6.69899 214.77 6.91878 214.609 7.08165C214.448 7.24452 214.229 7.33734 214 7.33998H188.68V25.93H200.08C200.307 25.9326 200.525 26.024 200.685 26.1847C200.846 26.3455 200.937 26.5627 200.94 26.79C200.94 27.019 200.85 27.2388 200.689 27.4016C200.528 27.5645 200.309 27.6573 200.08 27.66H188.68V52.18H214.07C214.301 52.18 214.522 52.2716 214.685 52.4348C214.848 52.598 214.94 52.8192 214.94 53.05Z" fill="url(#paint6_linear)"/>
<path d="M255.41 6.48999V53.92H254L229.17 9.91999V53C229.17 53.236 229.076 53.4624 228.909 53.6293C228.742 53.7962 228.516 53.89 228.28 53.89C228.044 53.89 227.818 53.7962 227.651 53.6293C227.484 53.4624 227.39 53.236 227.39 53V5.59999H228.78L253.6 49.6V6.48999C253.6 6.25395 253.694 6.02758 253.861 5.86067C254.028 5.69376 254.254 5.59999 254.49 5.59999C254.609 5.59597 254.728 5.61601 254.84 5.65893C254.951 5.70185 255.053 5.76677 255.139 5.84982C255.225 5.93287 255.293 6.03235 255.34 6.14233C255.386 6.25231 255.41 6.37055 255.41 6.48999Z" fill="url(#paint7_linear)"/>
<path d="M174.38 5.59998V53C174.38 53.1177 174.357 53.2343 174.311 53.3429C174.266 53.4515 174.199 53.5501 174.116 53.6329C174.032 53.7156 173.933 53.781 173.824 53.8251C173.714 53.8693 173.598 53.8913 173.48 53.89C173.243 53.89 173.016 53.7965 172.847 53.6299C172.679 53.4633 172.583 53.2369 172.58 53V8.68998L152.64 28.63L132.64 8.62998V53C132.64 53.1177 132.617 53.2343 132.571 53.3429C132.526 53.4515 132.459 53.5501 132.376 53.6329C132.292 53.7156 132.193 53.781 132.084 53.8251C131.974 53.8693 131.858 53.8913 131.74 53.89C131.504 53.89 131.278 53.7962 131.111 53.6293C130.944 53.4624 130.85 53.236 130.85 53V5.59998H132.1L152.61 26.11L173.15 5.59998H174.38Z" fill="url(#paint8_linear)"/>
<path d="M310.38 53.58C310.161 53.6699 309.915 53.67 309.696 53.5801C309.477 53.4903 309.303 53.3178 309.21 53.1L289.74 7.99999C289.714 7.93271 289.667 7.87497 289.608 7.83427C289.548 7.79357 289.477 7.7718 289.405 7.7718C289.333 7.7718 289.262 7.79357 289.202 7.83427C289.143 7.87497 289.096 7.93271 289.07 7.99999L269.61 53.1C269.517 53.3178 269.343 53.4903 269.124 53.5801C268.905 53.67 268.659 53.6699 268.44 53.58C268.331 53.5351 268.233 53.4692 268.15 53.386C268.066 53.3027 268.001 53.2039 267.956 53.0951C267.911 52.9863 267.889 52.8697 267.889 52.7521C267.89 52.6345 267.914 52.5183 267.96 52.41L287.7 6.66999C287.839 6.33141 288.076 6.04207 288.381 5.839C288.686 5.63592 289.044 5.52833 289.41 5.52999C289.776 5.52966 290.134 5.63778 290.438 5.84069C290.742 6.0436 290.98 6.3322 291.12 6.66999L310.86 52.41C310.95 52.6289 310.95 52.8745 310.86 53.0935C310.77 53.3125 310.598 53.4873 310.38 53.58Z" fill="url(#paint9_linear)"/>
<path d="M363.27 61.24C362.424 61.2366 361.599 60.9688 360.913 60.4739C360.226 59.979 359.711 59.2819 359.44 58.48C359.29 58.0912 359.023 57.7588 358.675 57.5293C358.327 57.2998 357.916 57.1847 357.5 57.2C357.192 57.2046 356.889 57.2803 356.615 57.4211C356.341 57.5619 356.104 57.7641 355.921 58.0119C355.738 58.2597 355.615 58.5463 355.561 58.8496C355.507 59.1528 355.524 59.4644 355.61 59.76C356.236 61.6264 357.523 63.1988 359.23 64.18C360.438 64.9057 361.821 65.2862 363.23 65.28H367.06L371.06 61.28L363.27 61.24Z" fill="url(#paint10_linear)"/>
<path d="M425.72 61.24C426.566 61.2366 427.391 60.9688 428.077 60.4739C428.764 59.979 429.279 59.2819 429.55 58.48C429.7 58.0912 429.967 57.7588 430.315 57.5293C430.663 57.2998 431.074 57.1847 431.49 57.2C431.798 57.2046 432.101 57.2803 432.375 57.4211C432.649 57.5619 432.886 57.7641 433.069 58.0119C433.252 58.2597 433.375 58.5463 433.429 58.8496C433.483 59.1528 433.466 59.4644 433.38 59.76C432.756 61.6303 431.463 63.2043 429.75 64.18C428.544 64.9086 427.159 65.2893 425.75 65.28H421.92L417.92 61.28L425.72 61.24Z" fill="url(#paint11_linear)"/>
<path d="M388.4 65.52C389.461 65.52 390.478 65.9415 391.228 66.6916C391.979 67.4417 392.4 68.4592 392.4 69.52V69.75L394.45 71.81L396.45 69.81V69.5C396.45 68.4392 396.871 67.4217 397.622 66.6716C398.372 65.9215 399.389 65.5 400.45 65.5H400.75L404.75 61.5H400.41C399.001 61.4913 397.617 61.8719 396.41 62.6C395.634 63.019 394.953 63.5945 394.41 64.29C393.857 63.6049 393.178 63.0314 392.41 62.6C391.202 61.8743 389.819 61.4938 388.41 61.5H384.14L388.14 65.5L388.4 65.52Z" fill="url(#paint12_linear)"/>
<path d="M375.18 61.48L371.14 65.52H384.13L380.09 61.48H375.18Z" fill="url(#paint13_linear)"/>
<path d="M413.81 61.48L417.85 65.52H404.86L408.9 61.48H413.81Z" fill="url(#paint14_linear)"/>
<defs>
<linearGradient id="paint0_linear" x1="-87.2903" y1="119.28" x2="431.11" y2="19.9199" gradientUnits="userSpaceOnUse">
<stop stop-color="#515050"/>
<stop offset="0.52" stop-color="#020202"/>
<stop offset="1" stop-color="#515050"/>
</linearGradient>
<linearGradient id="paint1_linear" x1="-2780.74" y1="6012.98" x2="16582" y2="3171.85" gradientUnits="userSpaceOnUse">
<stop stop-color="#515050"/>
<stop offset="0.52" stop-color="#020202"/>
<stop offset="1" stop-color="#515050"/>
</linearGradient>
<linearGradient id="paint2_linear" x1="-2793.63" y1="2533.22" x2="12068.4" y2="882.908" gradientUnits="userSpaceOnUse">
<stop stop-color="#515050"/>
<stop offset="0.52" stop-color="#020202"/>
<stop offset="1" stop-color="#515050"/>
</linearGradient>
<linearGradient id="paint3_linear" x1="-2709.5" y1="2945.5" x2="12165.7" y2="1291.17" gradientUnits="userSpaceOnUse">
<stop stop-color="#515050"/>
<stop offset="0.52" stop-color="#020202"/>
<stop offset="1" stop-color="#515050"/>
</linearGradient>
<linearGradient id="paint4_linear" x1="-2628.25" y1="3243.96" x2="12209.9" y2="1594.25" gradientUnits="userSpaceOnUse">
<stop stop-color="#515050"/>
<stop offset="0.52" stop-color="#020202"/>
<stop offset="1" stop-color="#515050"/>
</linearGradient>
<linearGradient id="paint5_linear" x1="-2164.39" y1="5319.23" x2="12673.8" y2="3669.52" gradientUnits="userSpaceOnUse">
<stop stop-color="#515050"/>
<stop offset="0.52" stop-color="#020202"/>
<stop offset="1" stop-color="#515050"/>
</linearGradient>
<linearGradient id="paint6_linear" x1="-2442.55" y1="4167.02" x2="12463.9" y2="2506.37" gradientUnits="userSpaceOnUse">
<stop stop-color="#515050"/>
<stop offset="0.52" stop-color="#020202"/>
<stop offset="1" stop-color="#515050"/>
</linearGradient>
<linearGradient id="paint7_linear" x1="-2355.77" y1="4533.23" x2="12519.7" y2="2879.93" gradientUnits="userSpaceOnUse">
<stop stop-color="#515050"/>
<stop offset="0.52" stop-color="#020202"/>
<stop offset="1" stop-color="#515050"/>
</linearGradient>
<linearGradient id="paint8_linear" x1="-4019.74" y1="3734.08" x2="18697.1" y2="-190.793" gradientUnits="userSpaceOnUse">
<stop stop-color="#515050"/>
<stop offset="0.52" stop-color="#020202"/>
<stop offset="1" stop-color="#515050"/>
</linearGradient>
<linearGradient id="paint9_linear" x1="-3612.42" y1="5024.67" x2="18857.7" y2="1172.53" gradientUnits="userSpaceOnUse">
<stop stop-color="#515050"/>
<stop offset="0.52" stop-color="#020202"/>
<stop offset="1" stop-color="#515050"/>
</linearGradient>
<linearGradient id="paint10_linear" x1="-919.333" y1="1240.32" x2="6430.15" y2="-1466.68" gradientUnits="userSpaceOnUse">
<stop stop-color="#515050"/>
<stop offset="0.52" stop-color="#020202"/>
<stop offset="1" stop-color="#515050"/>
</linearGradient>
<linearGradient id="paint11_linear" x1="-821.089" y1="1339.98" x2="6532.01" y2="-1370.07" gradientUnits="userSpaceOnUse">
<stop stop-color="#515050"/>
<stop offset="0.52" stop-color="#020202"/>
<stop offset="1" stop-color="#515050"/>
</linearGradient>
<linearGradient id="paint12_linear" x1="-1267.34" y1="1676.38" x2="8391.48" y2="-2024.32" gradientUnits="userSpaceOnUse">
<stop stop-color="#515050"/>
<stop offset="0.52" stop-color="#020202"/>
<stop offset="1" stop-color="#515050"/>
</linearGradient>
<linearGradient id="paint13_linear" x1="-681.829" y1="674.752" x2="4377.9" y2="-2443.43" gradientUnits="userSpaceOnUse">
<stop stop-color="#515050"/>
<stop offset="0.52" stop-color="#020202"/>
<stop offset="1" stop-color="#515050"/>
</linearGradient>
<linearGradient id="paint14_linear" x1="-632.523" y1="699.921" x2="4427.22" y2="-2418.28" gradientUnits="userSpaceOnUse">
<stop stop-color="#515050"/>
<stop offset="0.52" stop-color="#020202"/>
<stop offset="1" stop-color="#515050"/>
</linearGradient>
</defs>
</svg>
