<svg width="120" height="78" viewBox="0 0 251 78" fill="none" xmlns="http://www.w3.org/2000/svg">
<path d="M189.661 10.6754H178.577V46.5775C178.577 49.8414 177.875 52.2439 176.503 53.7625C175.826 54.513 174.991 55.1051 174.059 55.4968C173.126 55.8885 172.119 56.0702 171.109 56.029C169.223 56.0798 167.364 55.5668 165.771 54.5558C164.041 53.3525 162.511 51.8839 161.238 50.204L160.649 49.4674L153.441 56.8563L153.849 57.423C155.713 59.9416 158.059 62.0642 160.751 63.6673C163.963 65.4596 167.603 66.3413 171.279 66.2172C173.79 66.2444 176.286 65.8341 178.657 65.0046C180.852 64.2248 182.848 62.9711 184.504 61.3327C186.194 59.5999 187.493 57.5246 188.312 55.2471C189.27 52.549 189.734 49.7007 189.683 46.8382L189.661 10.6754Z" fill="url(#paint0_linear)"/>
<path d="M230.685 43.5857C229.896 41.8447 228.736 40.2975 227.285 39.0526C225.638 37.6653 223.768 36.5658 221.755 35.8001C219.334 34.8546 216.855 34.0672 214.332 33.4429C211.861 32.8536 209.799 32.3096 208.224 31.743C206.947 31.3476 205.731 30.7795 204.609 30.0544C203.926 29.6299 203.364 29.0367 202.977 28.3318C202.658 27.5917 202.503 26.7914 202.523 25.9859C202.525 25.2438 202.702 24.5126 203.039 23.8512C203.375 23.1897 203.862 22.6167 204.461 22.1781C206.123 20.9749 208.147 20.3788 210.196 20.4896C212.525 20.5031 214.831 20.9528 216.995 21.8155C219.457 22.8204 221.783 24.1301 223.919 25.714L224.599 26.2126L230.47 17.9284L229.858 17.4411C227.195 15.3222 224.211 13.6427 221.018 12.466C217.595 11.2729 213.99 10.6861 210.366 10.7321C207.847 10.7122 205.341 11.0947 202.943 11.8654C200.776 12.5479 198.769 13.6577 197.038 15.1292C195.35 16.5688 194 18.3636 193.085 20.3853C192.17 22.407 191.713 24.6058 191.746 26.8246C191.689 29.0708 192.11 31.3036 192.981 33.3749C193.818 35.1586 195.055 36.7253 196.596 37.9533C198.304 39.2948 200.217 40.351 202.263 41.0811C204.732 41.9639 207.253 42.6981 209.81 43.2797C211.798 43.7417 213.761 44.3053 215.692 44.9683C216.894 45.3666 218.037 45.9231 219.092 46.6228C219.743 47.0459 220.268 47.6372 220.61 48.3341C220.911 49.0508 221.054 49.8238 221.03 50.6006C221.056 51.4233 220.872 52.239 220.495 52.9707C220.118 53.7025 219.561 54.326 218.876 54.7824C217.002 55.9707 214.803 56.5451 212.587 56.4257C209.673 56.4748 206.782 55.899 204.11 54.7371C201.38 53.4466 198.85 51.7712 196.596 49.762L195.962 49.218L189.366 57.049L189.967 57.5929C193.026 60.4003 196.591 62.6002 200.472 64.0753C204.278 65.4782 208.304 66.192 212.36 66.1831C214.997 66.1943 217.621 65.8123 220.146 65.0499C222.392 64.3922 224.487 63.2985 226.311 61.8314C228.039 60.4345 229.433 58.6688 230.39 56.6636C231.384 54.4646 231.88 52.073 231.841 49.66C231.888 47.5764 231.494 45.5065 230.685 43.5857Z" fill="url(#paint1_linear)"/>
<path d="M58.2576 36.8314C60.3891 35.8386 62.2311 34.317 63.6085 32.4112C64.9858 30.5055 65.8525 28.279 66.1263 25.9436C66.4 23.6082 66.0716 21.2417 65.1724 19.0691C64.2732 16.8964 62.8329 14.9901 60.9888 13.5313C60.571 13.2024 60.1359 12.896 59.6855 12.6133C57.5147 11.2668 55.0098 10.5561 52.4553 10.5621H36.3174V66.2965H53.4865C56.1623 66.3024 58.7913 65.5943 61.1021 64.2452C61.5781 63.9619 62.0314 63.6559 62.4847 63.3273C64.7091 61.6803 66.4387 59.4542 67.4849 56.8918C68.5311 54.3293 68.8538 51.5288 68.4177 48.7956C67.9817 46.0624 66.8037 43.5013 65.0121 41.3916C63.2205 39.2819 60.8841 37.7045 58.2576 36.8314ZM52.4553 12.7833C53.8533 12.7797 55.2401 13.0332 56.5464 13.5313C58.9046 14.4321 60.9036 16.0796 62.2384 18.2223C63.5732 20.3651 64.1706 22.8856 63.9395 25.3994C63.7084 27.9133 62.6615 30.2827 60.9584 32.1461C59.2553 34.0096 56.9895 35.265 54.5065 35.7208C54.2203 35.7691 53.9606 35.9176 53.7738 36.1397C53.587 36.3619 53.4852 36.6431 53.4865 36.9334C53.4855 37.2441 53.6015 37.5437 53.8116 37.7727C54.0216 38.0016 54.3102 38.143 54.6198 38.1686C57.5536 38.4147 60.3182 39.6451 62.4646 41.6602C64.611 43.6753 66.0133 46.3568 66.4438 49.2693C66.8743 52.1817 66.3078 55.1542 64.8361 57.7041C63.3645 60.2541 61.0741 62.2317 58.3369 63.316C56.8133 63.9286 55.1854 64.2404 53.5432 64.2339H38.3687V12.7833H52.4553Z" fill="url(#paint2_linear)"/>
<path d="M149.747 10.5621C150.02 10.5621 150.283 10.6708 150.476 10.8642C150.669 11.0576 150.778 11.3199 150.778 11.5934C150.778 11.5934 150.778 50.6913 150.778 50.952C150.559 55.0811 148.764 58.9689 145.764 61.8143C142.764 64.6597 138.786 66.2458 134.652 66.2458C130.517 66.2458 126.539 64.6597 123.539 61.8143C120.539 58.9689 118.744 55.0811 118.525 50.952C118.525 50.6913 118.525 11.5934 118.525 11.5934C118.525 11.3199 118.634 11.0576 118.827 10.8642C119.021 10.6708 119.283 10.5621 119.556 10.5621C119.831 10.5621 120.094 10.6704 120.29 10.8635C120.485 11.0565 120.596 11.3188 120.599 11.5934C120.599 11.5934 120.599 50.6346 120.599 50.8726C120.766 54.4822 122.315 57.8893 124.925 60.3883C127.535 62.8874 131.006 64.2869 134.619 64.2971C138.233 64.3073 141.712 62.9274 144.336 60.4431C146.96 57.9588 148.528 54.5606 148.715 50.952C148.715 50.6913 148.715 11.5934 148.715 11.5934C148.718 11.3188 148.83 11.0565 149.025 10.8635C149.22 10.6704 149.483 10.5621 149.758 10.5621H149.747Z" fill="url(#paint3_linear)"/>
<path d="M109.697 11.5934V66.2965H108.088L79.4611 15.5372V65.2652C79.4611 65.5387 79.3525 65.801 79.1591 65.9944C78.9657 66.1878 78.7034 66.2965 78.4298 66.2965C78.1563 66.2965 77.894 66.1878 77.7006 65.9944C77.5072 65.801 77.3986 65.5387 77.3986 65.2652V10.5621H79.0078L107.634 61.3214V11.5934C107.634 11.3199 107.743 11.0576 107.936 10.8642C108.13 10.6708 108.392 10.5621 108.666 10.5621C108.939 10.5621 109.201 10.6708 109.395 10.8642C109.588 11.0576 109.697 11.3199 109.697 11.5934Z" fill="url(#paint4_linear)"/>
<path d="M21.6076 16.4098C21.6082 15.8125 21.7968 15.2305 22.1466 14.7464C22.4965 14.2623 22.9899 13.9006 23.5568 13.7126C23.8287 13.6035 24.0604 13.4134 24.2206 13.1681C24.3807 12.9228 24.4616 12.6341 24.4521 12.3413C24.4534 12.1231 24.4031 11.9077 24.3052 11.7127C24.2074 11.5177 24.0647 11.3486 23.889 11.2193C23.7132 11.09 23.5094 11.0041 23.2941 10.9686C23.0788 10.9332 22.8581 10.9492 22.6502 11.0154C21.3318 11.4692 20.2238 12.3877 19.5337 13.5993C19.0172 14.4573 18.7503 15.4424 18.7631 16.4438V19.1523L21.6076 21.9968V16.4098Z" fill="url(#paint5_linear)"/>
<path d="M21.6076 60.4488C21.6099 61.0457 21.7991 61.6268 22.1487 62.1106C22.4984 62.5944 22.9908 62.9565 23.5568 63.146C23.8287 63.2551 24.0604 63.4452 24.2206 63.6905C24.3807 63.9358 24.4616 64.2244 24.4521 64.5172C24.4534 64.7354 24.4031 64.9508 24.3052 65.1458C24.2074 65.3409 24.0647 65.5099 23.889 65.6393C23.7132 65.7686 23.5094 65.8545 23.2941 65.8899C23.0788 65.9253 22.8581 65.9093 22.6502 65.8431C21.3373 65.3979 20.2301 64.492 19.5337 63.2933C19.0172 62.4352 18.7503 61.4502 18.7631 60.4488V57.7969L21.6076 54.9524V60.4488Z" fill="url(#paint6_linear)"/>
<path d="M18.5931 34.1342C18.5931 34.8886 18.2934 35.6121 17.7599 36.1455C17.2265 36.679 16.503 36.9787 15.7486 36.9787H15.5899L14.1393 38.4293L15.5332 39.8232H15.7486C16.1231 39.8232 16.4939 39.8971 16.8397 40.0408C17.1856 40.1845 17.4997 40.395 17.764 40.6603C18.0282 40.9257 18.2375 41.2406 18.3798 41.587C18.5221 41.9334 18.5946 42.3045 18.5931 42.679V42.8944L21.4489 45.7389V42.679C21.4597 41.6728 21.1889 40.6836 20.667 39.8232C20.368 39.2801 19.9634 38.8023 19.477 38.4179C19.9565 38.0132 20.3596 37.5257 20.667 36.9787C21.1874 36.1218 21.4582 35.1367 21.4489 34.1342V31.1197L18.5931 33.9982V34.1342Z" fill="url(#paint7_linear)"/>
<path d="M21.449 24.8073L18.5931 21.9628V31.1197L21.449 28.2752V24.8073Z" fill="url(#paint8_linear)"/>
<path d="M21.449 52.0512L18.5931 54.8957V45.7389L21.449 48.5834V52.0512Z" fill="url(#paint9_linear)"/>
<defs>
<linearGradient id="paint0_linear" x1="-30.2624" y1="90.6505" x2="273.274" y2="13.9506" gradientUnits="userSpaceOnUse">
<stop stop-color="#515050"/>
<stop offset="0.52" stop-color="#020202"/>
<stop offset="1" stop-color="#515050"/>
</linearGradient>
<linearGradient id="paint1_linear" x1="-886.197" y1="4855.73" x2="10780.7" y2="2597.44" gradientUnits="userSpaceOnUse">
<stop stop-color="#515050"/>
<stop offset="0.52" stop-color="#020202"/>
<stop offset="1" stop-color="#515050"/>
</linearGradient>
<linearGradient id="paint2_linear" x1="-1064.74" y1="2943.31" x2="7942.74" y2="1624.68" gradientUnits="userSpaceOnUse">
<stop stop-color="#515050"/>
<stop offset="0.52" stop-color="#020202"/>
<stop offset="1" stop-color="#515050"/>
</linearGradient>
<linearGradient id="paint3_linear" x1="-841" y1="3900.07" x2="8156.47" y2="2583.19" gradientUnits="userSpaceOnUse">
<stop stop-color="#515050"/>
<stop offset="0.52" stop-color="#020202"/>
<stop offset="1" stop-color="#515050"/>
</linearGradient>
<linearGradient id="paint4_linear" x1="-942.258" y1="3501.21" x2="8067.68" y2="2181.85" gradientUnits="userSpaceOnUse">
<stop stop-color="#515050"/>
<stop offset="0.52" stop-color="#020202"/>
<stop offset="1" stop-color="#515050"/>
</linearGradient>
<linearGradient id="paint5_linear" x1="-208.561" y1="336.381" x2="1385.81" y2="128.854" gradientUnits="userSpaceOnUse">
<stop stop-color="#515050"/>
<stop offset="0.52" stop-color="#020202"/>
<stop offset="1" stop-color="#515050"/>
</linearGradient>
<linearGradient id="paint6_linear" x1="-156.098" y1="777.492" x2="1437.83" y2="568.305" gradientUnits="userSpaceOnUse">
<stop stop-color="#515050"/>
<stop offset="0.52" stop-color="#020202"/>
<stop offset="1" stop-color="#515050"/>
</linearGradient>
<linearGradient id="paint7_linear" x1="-244.559" y1="725.679" x2="1805.61" y2="466.641" gradientUnits="userSpaceOnUse">
<stop stop-color="#515050"/>
<stop offset="0.52" stop-color="#020202"/>
<stop offset="1" stop-color="#515050"/>
</linearGradient>
<linearGradient id="paint8_linear" x1="-90.0148" y1="361.316" x2="718.713" y2="297.581" gradientUnits="userSpaceOnUse">
<stop stop-color="#515050"/>
<stop offset="0.52" stop-color="#020202"/>
<stop offset="1" stop-color="#515050"/>
</linearGradient>
<linearGradient id="paint9_linear" x1="-75.7927" y1="565.665" x2="732.935" y2="501.93" gradientUnits="userSpaceOnUse">
<stop stop-color="#515050"/>
<stop offset="0.52" stop-color="#020202"/>
<stop offset="1" stop-color="#515050"/>
</linearGradient>
</defs>
</svg>
